<svg width="473" height="473.89413" xmlns="http://www.w3.org/2000/svg">

 <g>
  <title>background</title>
  <rect fill="none" id="canvas_background" height="602" width="802" y="-1" x="-1"/>
 </g>
 <g>
  <title>Layer 1</title>
  <path fill="#ffffff" id="svg_1" d="m325.45703,128.625c-17.10937,-13.82422 -27.07422,-34.62891 -27.11719,-56.625l0,-48c0,-13.25391 -10.74609,-24 -24,-24l-80,0c-13.25781,0 -24,10.74609 -24,24l0,48c-0.13281,22.08203 -10.17968,42.93359 -27.36328,56.80078c-44.69531,36.66016 -63.11719,96.50781 -46.77344,151.96094c16.33985,55.44922 64.27735,95.73828 121.71094,102.30078c5.53125,0.61719 11.08985,0.92969 16.65625,0.9375c35.3711,0.10156 69.51172,-12.97656 95.76953,-36.67969c31.36719,-28.04297 48.88672,-68.41015 47.94532,-110.47656s-20.25,-81.60937 -52.84375,-108.21875l0.01562,0zm-139.11719,-104.625c0,-4.41797 3.57813,-8 8,-8l80,0c4.41797,0 8,3.58203 8,8l0,40l-96,0l0,-40zm133.34375,311.39844c-34.54296,30.93359 -83.11718,40.7539 -126.96484,25.67578s-76.10547,-52.69531 -84.32031,-98.32813c-8.21485,-45.63281 8.90234,-92.14062 44.73828,-121.5625c18.71094,-15.16406 30.54297,-37.21093 32.83203,-61.18359l96.73047,0c2.21484,23.90234 13.98047,45.89453 32.62891,61.00781c28.98046,23.64844 46.15234,58.80078 46.98828,96.19531c0.83593,37.39844 -14.74219,73.28126 -42.63282,98.20313l0,-0.00781zm0,0"/>
  <path fill="#ffffff" id="svg_2" d="m150.05078,166.39844l12.04688,10.53125c3.46875,-3.97266 7.26562,-7.65235 11.34375,-10.99219l-10.16016,-12.33594c-4.75,3.89844 -9.17578,8.17969 -13.23047,12.79688zm0,0"/>
  <path fill="#ffffff" id="svg_3" d="m153.04297,189.07813l-13.54688,-8.50391c-13.25,21.24609 -19.07812,46.28906 -16.5664,71.20312c1.78906,17.28125 7.59765,33.90625 16.96094,48.54297l13.47265,-8.625c-8.01172,-12.51953 -12.98437,-26.74218 -14.51172,-41.52734c-2.16406,-21.37109 2.82813,-42.85547 14.19141,-61.08984zm0,0"/>
  <path fill="#ffffff" id="svg_4" d="m58.97656,404.04688l45.25,-45.25l11.3125,11.3164l-45.24609,45.2461l-11.31641,-11.3125zm0,0"/>
  <path fill="#ffffff" id="svg_5" d="m164.49219,469.75391l16.5625,-61.82032l15.45312,4.14063l-16.5625,61.82031l-15.45312,-4.14062zm0,0"/>
  <path fill="#ffffff" id="svg_6" d="m272.16797,412.07031l15.45703,-4.14062l16.5625,61.82031l-15.45703,4.14063l-16.5625,-61.82032zm0,0"/>
  <path fill="#ffffff" id="svg_7" d="m353.13672,370.10938l11.3125,-11.3125l45.25,45.24609l-11.31641,11.31641l-45.24609,-45.25zm0,0"/>
  <path fill="#ffffff" id="svg_8" d="m58.97656,75.95703l11.3125,-11.3164l45.25,45.25l-11.3164,11.3125l-45.2461,-45.2461zm0,0"/>
  <path fill="#ffffff" id="svg_9" d="m402.26172,293.27734l4.14062,-15.45312l61.82032,16.5625l-4.14063,15.45312l-61.82031,-16.5625zm0,0"/>
  <path fill="#ffffff" id="svg_10" d="m0.44531,185.60547l4.14063,-15.45313l61.82031,16.5625l-4.14062,15.45313l-61.82032,-16.5625zm0,0"/>
  <path fill="#ffffff" id="svg_11" d="m402.27344,186.71875l61.82031,-16.5625l4.14063,15.45313l-61.82032,16.5664l-4.14062,-15.45703zm0,0"/>
  <path fill="#ffffff" id="svg_12" d="m0.44531,294.39063l61.82032,-16.5625l4.14062,15.45703l-61.82031,16.5625l-4.14063,-15.45703zm0,0"/>
  <path fill="#ffffff" id="svg_13" d="m353.13281,109.88672l45.25,-45.24609l11.3125,11.3125l-45.25,45.25l-11.3125,-11.31641zm0,0"/>
 </g>
</svg>